<svg viewBox="221.43542399999998 640.902528 1050.168 231.03696" xmlns="http://www.w3.org/2000/svg" data-name="Layer 1" id="Layer_1" style="max-height: 500px" width="1050.168" height="231.03696">
  <defs>
    <style>
      .cls-1 {
        fill: #c2d8e5;
      }

      .cls-2 {
        fill: #fff;
      }

      .cls-3 {
        fill: #4584c0;
      }

      .cls-4 {
        fill: #44b1bf;
      }

      .cls-5 {
        fill: #4492c2;
      }

      .cls-6 {
        fill: #fefeff;
      }

      .cls-7 {
        fill: #4583c0;
      }

      .cls-8 {
        fill: #dfebf4;
      }

      .cls-9 {
        fill: #4683c1;
      }

      .cls-10 {
        fill: #f6f9fc;
      }

      .cls-11 {
        fill: #4693c3;
      }

      .cls-12 {
        fill: #f4f8fb;
      }

      .cls-13 {
        fill: #508ac4;
      }
    </style>
  </defs>
  <path d="m0,1500.24C0,1000.16,0,500.08,0,0c500.08,0,1000.16,0,1500.24,0,0,500.08,0,1000.16,0,1500.24-500.08,0-1000.16,0-1500.24,0Zm1040.07-697.84c.14,1.58.4,3.16.4,4.75,0,2.17.74,4.06,1.85,5.85,1.27,2.06,3.13,3.07,5.56,3.18,4.5.19,8.21-2.38,9.79-6.89.75-2.14.81-4.37.81-6.62-.01-12.77,0-25.54-.02-38.32,0-1.43-.15-2.86-.29-4.29-.69-6.98-1.53-13.96-.34-20.97,1-.12,1.71-.55,1.78-1.68.08-1.27-.43-2.03-1.75-2.17-.13-1.91-.23-3.82-.41-5.72-.1-1.12-.29-2.25-1.39-2.9-2.06-1.21-4.06-2.58-6.24-3.52-3.17-1.37-5.81-.37-8,2.39-1.19,1.5-1.15,3.26-1.52,4.95-.78.06-1.61-.05-2.22.6-.48.51-.48,1.17-.37,1.8.26,1.53,1.51,1.37,2.6,1.45.4,3.2.37,6.4-.02,9.6-2.58.59-2.59.59-2.68,2.44-.04.79-.02,1.59-.02,2.39,0,10.84,0,21.67,0,32.51,0,.96.01,1.91.03,2.87.03,1.75,1.22,2.01,2.61,2.03.39,2.88.37,5.75-.01,8.63-2.5.6-2.52.6-2.6,2.36-.04,1.07,0,2.15.02,3.22.03,1.59,1.02,2.08,2.43,2.07Zm-48.78-31.72c-.87,1.64-1.73,3.28-2.61,4.92-1.69,3.14-2.77,6.6-4.82,9.56-.65-.32-1.31-.64-1.96-.96-1.09-1.06-1.26-2.56-1.78-3.88-6.44-16.34-12.85-32.69-19.24-49.05-.7-1.79-1.51-3.51-2.58-5.12-2.12-3.19-5.11-4.32-8.72-3.41-3.56.9-6.46,2.74-7.39,6.68-.22.95-.28,1.87-.08,2.84.38,1.89.9,3.72,1.75,5.46,1.32,2.73,2.64,5.47,3.93,8.21,2.25,4.77,4.57,9.51,6.17,14.54,2.81,8.83,6.06,17.5,9.65,26.04,3.28,7.8,6.53,15.61,9.78,23.43.81,1.95,1.84,3.71,3.71,4.86,5.49,3.39,13.31,1.15,15.78-4.82,3.6-8.7,6.91-17.51,10.34-26.28,1.65-1.4,2.71-3.08,2.82-5.32.06-1.31.67-2.49,1.5-3.46,1.27-1.5,1.95-3.28,2.66-5.05,3.32-8.29,6.65-16.57,9.91-24.88,1.22-3.11,2.27-6.29,3.39-9.44.55-1.53.67-3.12.51-4.72-.52-5.22-4.73-8.59-9.92-8.01-3.45.38-5.97,1.99-7.25,5.31-.4,1.04-.84,2.07-1.25,3.11-1.85,4.75-3.65,9.52-5.56,14.25-1.61,3.99-3.43,7.9-4.97,11.92-1.66,4.31-3.4,8.61-3.76,13.29Zm-721.51,16.39c1.22-.06,2.56.07,2.74-1.68.14-1.34-.37-1.74-2.71-2.16-.38-1.6-.38-3.2,0-4.8,2.65-.56,2.67-.56,2.76-2.38.05-1.11.02-2.23.02-3.35,0-13.08,0-26.17,0-39.25,3.52-.31,7.04-.39,10.56.08,1.09,2.47,1.19,2.67,2.76,2.19,1.73-.53,3.32-.52,5.05,0,1.56.48,1.67.27,2.75-2.21,1.27-.33,2.55-.4,3.84-.15.14.81.45,1.7,1.31,1.73,2.97.1,5.95.1,8.93-.01.86-.03,1.15-.95,1.28-1.75,1.27-.07,2.55-.2,3.82-.2,34.21-.04,68.42-.07,102.64-.11.64,0,1.28-.05,1.92,0,2.12.17,2.83.91,2.85,3.01.02,1.92-.12,3.84-.02,5.75.17,3.24,2.06,5.24,4.96,6.42,1.22.49,2.49.56,3.77.56,3.81,0,5.95-1.72,6.65-5.49.23-1.25.28-2.54.29-3.82.03-3.2-.04-6.39,0-9.59.06-5.75.07-11.51.3-17.26.3-7.55-.29-15.02-1.81-22.39-1.16-5.65-4.19-10.33-8.85-13.84-1.66-1.25-3.39-2.39-5.14-3.51-5.14-3.29-10.82-3.85-16.62-2.69-4.43.89-4.2,1.21-4.33,4.96-.05,1.44-.17,2.89-.05,4.31.41,4.64,1.71,5.99,5.96,5.29,3.62-.6,6.45.63,9.34,2.68,3.25,2.31,4.78,5.55,5.71,9.09,1.61,6.12,1.18,12.35.28,18.56-1.82,0-3.01.78-3.23,2.7-1.92.06-3.83.17-5.75.17-19.99,0-39.98,0-59.97-.01-24.15,0-48.29-.01-72.44-.03-2.08,0-4.13-.03-6.2-.45-1.79-.37-2.79-1.14-3.17-2.98-1.52-7.37-.73-14.62,1.05-21.82.15-.61.43-1.21.71-1.78,1.59-3.23,3.92-5.42,7.76-5.48.64-.01,1.28-.05,1.91-.17,3.3-.63,5.12-2.41,5.49-5.76.26-2.37.24-4.79.18-7.18-.04-1.57-.78-2.24-2.46-2.36-3.04-.23-6.06-.19-9.04.61-11.56,3.13-21.32,15.76-21.33,27.81-.03,26.7,0,53.41-.01,80.11,0,1.91-.15,3.82-.24,5.74-.59.21-1.28.43-1.35,1.12-.31,3.1-.32,6.2.01,9.3.08.7.77.9,1.36,1.11.08,1.85.18,3.71.23,5.56.09,2.94.15,5.88.22,8.83-.27.97-.26,1.94.03,2.9.04.61.08,1.22.11,1.83.27,1.24.5,2.49.8,3.73,1.31,5.39,3.71,10.17,7.71,14.09,2.65,2.59,5.7,4.62,8.99,6.3,5.32,2.71,10.82,4.2,16.97,4.16,32.42-.25,64.85-.19,97.28-.25,1.12,0,2.24.04,3.35-.06.61-.06,1.26-.27,1.78-.59,3.85-2.38,5.15-6.7,3.3-10.85-.32-.72-.73-1.41-1.1-2.11.51-.36.85-.86.34-1.37-.51-.51-1.01-.17-1.37.34-5.8-.05-11.6-.09-17.4-.17-1.55-.02-3.14.26-4.64-.44.26-.62.68-1.1,1.38-1.13,1.27-.05,2.55.05,3.81-.09.95-.11,2.7.61,2.57-1.03-.11-1.4-1.81-.72-2.82-.83-.94-.1-1.91-.02-2.86-.02-4.61,0-9.23,0-13.84,0-1.11,0-2.32.2-3.32-.16-3.11-1.09-6.29-.77-9.45-.79-5.41-.04-10.82.04-16.23-.03-2.41-.03-4.7.38-7.04.87-1.9.4-2.27,1.42-2.21,3.01-2.88.81-5.76.91-8.63-.05.2-.72.9-1.36.44-2.17-.46-.82-1.34-.7-2.08-.63-.58.05-1.26.21-1.69.57-.64.53-.48,1.42-.53,2.18-1.27.38-2.56.3-3.84.1-.12-.61-.15-1.32-.82-1.58-1.35-.52-2.75-.52-4.1-.01-.67.25-.71.96-.84,1.57-2.22.13-4.47.12-6.67.42-1.8.25-3.48.04-5.19-.42-1.23-.33-2.46-.65-3.7-.95-9.46-2.3-14.75-10.17-13.48-20.04,1.17-.15,2.28-.53,2.08-1.95-.25-1.8-.39-3.71-2.02-4.97-.85-4.15.1-8.27.24-12.4Zm892.32-21.12c-.6.19-1.3.34-1.43,1.05-.35,1.86-.36,3.74.01,5.6.14.71.85.85,1.45,1.04.65,5.91,1.98,11.65,4.42,17.09,7.95,17.66,29.34,32.58,54.64,25.53,6.72-1.87,12.92-4.63,18.24-9.21,1.86-1.6,3.37-3.43,4.07-5.8.98-3.32-.49-5.88-2.63-8.24-2.09-2.3-4.67-2.65-7.46-1.83-1.2.35-2.29,1.12-3.4,1.74-4.05,2.26-8.1,4.51-12.61,5.76-15.61,4.32-28.91-3.65-34.74-15.27-.5-.99-.91-2.05-1.15-3.13-.41-1.86.46-3.13,2.36-3.46,1.09-.19,2.23-.23,3.34-.2,16.78.43,33.57-.35,50.35.53,5.87.31,8.91-2.34,9.86-8.15.08-.47.12-.95.16-1.43.7-9.5-1.11-18.43-6.02-26.68-9.81-16.49-29.84-24.5-48.15-17.89-16.12,5.82-26.35,17.51-30.39,34.39-.68,2.84-.36,5.74-.94,8.56Zm-362.55,11.47c8.04-.05,16.09-.14,24.13-.14,2.83,0,5.67.21,8.5.32.14,1.3.93,1.77,2.16,1.79,1.32.02,2.46-.13,2.63-1.77,2.07-.09,4.14-.2,6.21-.28,4.95-.18,9.91.1,14.84-.6,5.31-.76,8-3.29,8.6-8.6.42-3.66.5-7.37-.1-11-4.07-24.62-28.5-40.01-49.83-35.46-15.9,3.39-27.12,12.42-33.4,27.32-5.7,13.54-4.93,27.16.82,40.51,4.94,11.47,12.94,20.17,24.65,24.88,17.05,6.86,32.87,3.67,47.6-6.62,2.12-1.48,3.65-3.56,4.72-5.94.92-2.03.88-4.03-.13-6.01-2.01-3.91-5.81-6.66-11.16-4.03-2,.99-3.92,2.14-5.89,3.2-6.33,3.41-13.02,5.12-20.26,4.64-11.39-.75-22.22-9.87-24.98-21.21.29-.34.59-.67.88-1.01Zm-286.06-91.06c-.61.2-1.21.41-1.82.6-5.26,1.63-6.68,3.48-6.83,8.91-.07,2.55-.16,5.11-.17,7.67-.03,34.03-.05,68.06-.07,102.09,0,1.12-.02,2.25.16,3.35.86,5.22,5.27,8.26,10.05,6.97,4.09-1.1,6.65-4.39,6.66-8.71,0-11.34-.04-22.69-.04-34.03,0-1.75.12-3.5.18-5.25,1.91-.58,3.21-1.72,3.45-3.81,4.15-.04,8.31-.06,12.46-.12,3.24-.04,5.82.95,7.76,3.81,2.96,4.36,6.31,8.46,9.33,12.78,7.41,10.62,14.76,21.28,22.06,31.98,1.98,2.9,3.81,4.39,8.64,2.88,1.68-.52,3.29-1.22,4.73-2.29,2.74-2.05,3.44-4.22,2.49-7.54-.62-2.2-1.82-4.07-3.07-5.94-7-10.51-14.1-20.96-21.76-31.01-.68-.89-1.37-1.78-1.91-2.76-1.28-2.31-.92-3.9,1.27-5.3,1.75-1.11,3.63-2.02,5.42-3.07,7.86-4.64,13.67-10.97,16.35-19.87.92-3.07,1.44-6.21,1.76-9.4,1.23-12-2.66-22-11.56-30.08-5.81-5.27-12.76-8.42-20.15-10.74-2.61-.82-5.24-1.25-8-1.24-11.83.05-23.66-.02-35.49-.05-.73-.92-1.36-.75-1.91.19Zm139.4,90.39s0,.09,0,.14c8.15,0,16.3,0,24.45,0,1.43,0,2.88-.04,4.3-.2,2.83-.33,4.63-2,5.57-4.62.37-1.05.69-2.15.79-3.25.35-3.83.45-7.68-.03-11.49-3.33-26.65-34.21-48.53-65.04-29.07-9.14,5.77-14.55,14.66-18.11,24.68-2.71,7.63-3.71,15.54-2.66,23.6,1.38,10.52,6.28,19.33,13.51,26.95,5.19,5.46,11.44,9.16,18.62,11.32,2.6.78,5.25,1.38,7.84,2.2,3.29,1.05,6.61,1.03,9.96.55,1.58-.23,3.15-.52,4.71-.85,7.9-1.67,15.4-4.26,21.76-9.45,1.23-1,2.43-2.11,3.36-3.38,2.31-3.11,2.15-6.58-.23-9.73-2.29-3.04-5.09-3.85-8.91-2.51-1.05.37-2.06.87-3.07,1.34-4.06,1.88-8.1,3.79-12.17,5.64-2.96,1.34-6.1,2.01-9.34,1.65-9.3-1.04-17.09-5-23.06-12.3-1.74-2.13-2.85-4.62-3.77-7.18-.78-2.18-.13-3.26,2.29-3.68,1.56-.27,3.17-.33,4.76-.34,8.15-.03,16.3-.01,24.45-.01Zm81.48,41.09c1.92,0,3.83,0,5.75,0,1.13,0,2.2-.18,3.21-.76,2.79-1.6,5.86-2.53,8.9-3.5,5.33-1.7,9.65-4.9,13.31-9.05,9.73-11.03,7.44-30.82-6.85-38.43-3.11-1.66-6.37-2.98-9.77-3.91-5.55-1.53-11.19-2.64-16.95-2.99-3.42-.21-6.64-1.05-9.45-3.05-3.37-2.4-4.28-5.8-3.69-9.73.51-3.43,2.78-5.29,5.83-6.32,1.5-.51,3.08-.83,4.66-1.03,6.64-.87,13.05.1,19.27,2.52,2.53.98,5.05,2.03,7.64,2.82,2.54.77,5.05.7,7.21-1.21,4.07-3.6,4.27-9.9.32-13.61-1.03-.97-2.28-1.76-3.52-2.45-2.66-1.47-5.5-2.54-8.42-3.42-4.46-1.34-9.06-1.79-13.66-2.39-8.75-1.13-16.84.73-24.43,5.01-6.62,3.74-10.75,9.33-12.35,16.83-.61,2.86-.68,5.7-.62,8.58.13,5.7,2.28,10.52,6.25,14.61,4.72,4.88,10.5,7.74,17.05,9.15,6.24,1.34,12.51,2.57,18.75,3.93,1.71.37,3.44.83,5,1.58,4.75,2.28,6.33,9.44,3.12,13.63-.7.91-1.59,1.57-2.68,1.93-3.63,1.22-7.21,2.56-10.99,3.35-3.59.76-6.98.35-10.3-1.06-.88-.37-1.72-.84-2.59-1.24-4.92-2.31-10.02-4.18-15.15-5.96-2.33-.81-4.45-.56-6.27,1.07-3.91,3.52-4.59,8.98-1.42,12.92,1.73,2.15,3.74,3.97,6.29,5.06,4.11,1.76,8.21,3.54,12.4,5.09,4.53,1.68,9.25,2.46,14.11,2.03Zm341.44-48.36c-.23,6.17.84,12.29,3.16,18.14,4.55,11.47,12.1,20.19,23.64,25.12,1.02.44,2.14.8,3,1.47,2.23,1.75,4.79,2.25,7.49,2.8,8.56,1.75,16.83,1,24.94-2.12,4.04-1.55,7.89-3.48,11.52-5.83,2.63-1.71,4.56-4.01,5.57-6.99,1.16-3.4.14-6.29-2.33-8.73-2.31-2.27-5-2.67-7.94-1.38-1.61.71-3.2,1.45-4.77,2.23-4.9,2.43-9.98,4.19-15.47,4.78-7.54.81-14.26-1-20.1-5.83-6.14-5.07-9.64-11.82-11.86-19.31-.31-1.05-.38-2.21-.39-3.32-.03-10.98,4.53-19.74,13-26.54,2-1.61,4.36-2.55,6.93-3.09,4.11-.86,8.24-.99,12.4-.9,6.05.13,11.65,1.78,16.75,5.05.94.6,1.84,1.27,2.8,1.84,1.16.68,2.42.89,3.68.36,7.35-3.11,9.61-10.55,4.1-16.12-2.75-2.78-6.09-4.66-9.62-6.18-9.04-3.9-18.41-5.12-28.11-3.14-16.35,3.34-28.1,12.4-34.61,27.95-2.62,6.27-4,12.78-3.8,19.75Zm-656.16,54.22c2.39.14,4.64-.57,6.72-1.89,1.9-1.21,3.57-2.68,5.19-4.24,5.41-5.22,10.87-10.38,16.26-15.61,9.76-9.46,19.48-18.95,29.21-28.43,1.26-1.23,2.38-2.57,3.14-4.2.85-1.83,1.04-3.69.32-5.58-2.35-6.15-10.61-9.26-16.46-6.23-2.02,1.04-3.62,2.59-5.24,4.15-10.69,10.33-21.39,20.65-32.09,30.97-1.61,1.56-3.29,3.03-5.27,4.11-1.51.83-3,.89-4.58.14-1.76-.83-3.27-1.97-4.77-3.19-2.6-2.12-5.11-4.38-7.88-6.25-4.78-3.24-9.22-3.01-13.75.36-3.67,2.73-4.82,6.27-3.46,10.57.55,1.73,1.66,3.07,3.02,4.24,4.84,4.18,9.64,8.4,14.5,12.55,2.31,1.97,4.64,3.93,7.08,5.72,2.35,1.73,4.96,2.92,8.08,2.82Zm463.17-55.12h.02c0,9.75,0,19.49,0,29.24,0,2.88.05,5.75.09,8.63.03,1.95.52,3.8,1.45,5.51,1.74,3.23,4.61,4.14,8.07,3.99,3.44-.16,5.67-1.84,6.86-5.02.85-2.28,1.08-4.65,1.08-7.06-.02-8.47.02-16.93-.02-25.4-.02-3.53.21-7.02.86-10.48,2.68-14.38,10.9-23.82,25-27.97,1.83-.54,3.74-.8,5.6-1.27,5.17-1.3,7.65-5.26,6.57-10.45-.65-3.16-2.59-5.15-5.81-5.5-3.82-.42-7.63-.38-11.42.56-6.22,1.54-11.4,4.89-16.19,8.97-.73.62-1.4,1.31-2.1,1.96-.73.68-1.53,1.21-2.56.73-1.05-.48-1.07-1.52-1.12-2.46-.07-1.27.09-2.57-.07-3.83-.24-1.92-.77-3.75-2.53-4.95-5.15-3.52-12.36-.6-13.53,5.54-.26,1.4-.25,2.86-.25,4.3-.02,11.66-.01,23.32-.01,34.99Zm-539.94-98.86c0,.08,0,.16,0,.24-5.75,0-11.5,0-17.25,0-1.12,0-2.24.02-3.35.11-.88.07-1.52.6-1.53,1.51-.04,3.35-.08,6.71.03,10.05.06,1.94,1.04,2.76,3.07,2.94.63.06,1.28.01,1.91.01,11.5-.01,22.99-.02,34.49-.05,1.11,0,2.23-.1,3.32-.31.79-.15,1.64-.65,1.79-1.44.62-3.26,1.65-6.51.66-9.9-.76-2.6-1.28-3.13-3.99-3.15-6.39-.05-12.77-.02-19.16-.02Zm-31,7.27h.08c0-4.46-.01-8.92,0-13.39,0-1.96-.3-3.81-1.48-5.43-.58-.8-1.29-1.45-2.33-1.48-2.23-.06-4.47-.19-6.68-.04-2.12.15-3.45,1.53-3.89,3.62-.16.77-.15,1.58-.24,2.38-.81,6.99-.53,14-.45,21.01.03,3.02.22,6.05.53,9.06.36,3.53,2.75,5.66,6.36,5.95,3.71.3,6.36-1.32,7.52-4.53.5-1.38.57-2.8.57-4.24,0-4.3,0-8.61,0-12.91Zm77.9.23h.05c0-2.39,0-4.79,0-7.18-.01-2.71-.11-5.43-.03-8.14.05-1.83-.71-3.05-2.25-3.87-.84-.45-1.67-.97-2.57-1.25-4.7-1.5-9.32,1.6-9.39,6.55-.13,9.25,0,18.51,0,27.77,0,1.49.41,2.81,1.34,4,2.47,3.16,6.05,3.82,9.83,1.85,2-1.04,3.15-2.41,3.07-4.87-.15-4.94-.04-9.89-.04-14.84Zm668.87,19.87c.1-2.09-.46-4.23-1.5-6.25-.9-1.77-2.19-3.19-4.08-3.86-3.98-1.41-7.85-1.34-11.35,1.33-3.68,2.79-4.93,6.61-4.18,11.03.76,4.49,3.62,7.37,7.77,8.95,1.62.62,3.3.95,5.14.46,5.2-1.38,8.23-5.49,8.2-11.66Zm-671.55,129.31c1.54-.04,2.36-.6,2.06-1.14-.35-.62-.95-.76-1.58-.71-.61.05-1.22.15-1.79.35-.17.06-.25.49-.3.77-.02.1.13.3.25.34.58.19,1.16.34,1.37.4Z" class="cls-2"/>
  <path d="m521.61,767.95c-.06,1.75-.18,3.5-.18,5.25,0,11.34.05,22.69.04,34.03,0,4.32-2.56,7.6-6.66,8.71-4.77,1.29-9.19-1.75-10.05-6.97-.18-1.09-.16-2.23-.16-3.35.02-34.03.04-68.06.07-102.09,0-2.56.1-5.11.17-7.67.15-5.44,1.57-7.28,6.83-8.91.61-.19,1.21-.4,1.82-.6.69.49,1.32.38,1.91-.19,11.83.03,23.66.1,35.49.05,2.76-.01,5.39.41,8,1.24,7.39,2.32,14.34,5.47,20.15,10.74,8.9,8.08,12.78,18.08,11.56,30.08-.33,3.19-.84,6.33-1.76,9.4-2.68,8.9-8.49,15.24-16.35,19.87-1.79,1.06-3.67,1.96-5.42,3.07-2.19,1.39-2.55,2.99-1.27,5.3.54.97,1.23,1.87,1.91,2.76,7.66,10.05,14.75,20.5,21.76,31.01,1.24,1.87,2.44,3.74,3.07,5.94.94,3.33.25,5.49-2.49,7.54-1.43,1.07-3.05,1.77-4.73,2.29-4.83,1.51-6.66.02-8.64-2.88-7.3-10.7-14.65-21.36-22.06-31.98-3.02-4.32-6.36-8.42-9.33-12.78-1.94-2.86-4.52-3.85-7.76-3.81-4.15.05-8.31.08-12.46.12-2.92.25-3.2.57-3.45,3.81Zm-.24-27.98c-.27,1.42-.35,2.8.82,3.91.15,1.22.65,2.16,2,2.3,1.11.12,2.23.23,3.34.22,8.14-.08,16.28-.32,24.42-.25,4.71.04,8.78-1.51,12.53-4.07,4.1-2.8,6.81-6.6,7.82-11.6.71-3.51.63-6.93.06-10.45-1.26-7.77-5.86-12.57-13.09-15.01-2.09-.7-4.36-1.22-6.55-1.24-9.26-.1-18.52.02-27.78.04-1.81,0-2.6.93-2.69,2.63-1.2,1.48-1.09,3.17-.79,4.89-.05,1.91-.18,3.82-.14,5.72.17,6.52.31,13.04-.06,19.56-.06,1.11.07,2.22.11,3.33Z" class="cls-7"/>
  <path d="m297.55,733.37c-1.29-.25-2.57-.18-3.84.15-3.52-.35-7.04-.33-10.56.02-3.52-.47-7.04-.39-10.56-.08-.64-.02-1.28-.04-1.92-.07-.67-.07-.97.23-.9.9-.06,1.58-.16,3.15-.17,4.73-.04,8.85-.04,17.7-.1,26.55-.01,1.73-.19,3.46-.3,5.19-.64,0-1.29.04-1.92-.03-1.99-.23-2.31-.49-2.35-2.28-.07-3.04-.03-6.08-.04-9.12,0-1.28,0-2.56-.04-3.84-.03-.84-.32-1.64-1.28-1.72-.98-.08-1.41.62-1.47,1.49-.08,1.11-.08,2.24-.08,3.35,0,3.04,0,6.08,0,9.12,0,.95.1,1.96-.55,2.75-.28.34-.71.61-1.13.75-.57.19-.87-.29-1.02-.74-.29-.9-.47-1.85-.79-2.74-.21-.59-.58-1.26-1.28-1.23-.76.03-.93.75-.95,1.41-.03,1.28-.04,2.56-.04,3.84,0,11.03,0,22.07,0,33.1,0,1.28.02,2.56-.11,3.83-.1.91-.88,1.24-1.71,1.4-.07-2.94-.13-5.88-.22-8.83-.06-1.86-.16-3.71-.23-5.56.44-3.85.44-7.69-.02-11.54.08-1.91.24-3.82.24-5.74.01-26.7-.02-53.41.01-80.11.01-12.05,9.77-24.68,21.33-27.81,2.98-.81,6.01-.84,9.04-.61,1.68.13,2.43.79,2.46,2.36.06,2.39.08,4.81-.18,7.18-.37,3.35-2.19,5.13-5.49,5.76-.62.12-1.27.16-1.91.17-3.84.06-6.17,2.25-7.76,5.48-.28.57-.55,1.17-.71,1.78-1.78,7.2-2.56,14.45-1.05,21.82.38,1.84,1.38,2.62,3.17,2.98,2.07.42,4.12.45,6.2.45,24.15.01,48.29.02,72.44.03,19.99,0,39.98.02,59.97.01,1.92,0,3.83-.11,5.75-.17.46.08.92.25,1.38.24,2.23-.05,2.4-.33,1.85-2.94.9-6.2,1.33-12.43-.28-18.56-.93-3.54-2.46-6.78-5.71-9.09-2.89-2.05-5.72-3.27-9.34-2.68-4.24.7-5.54-.65-5.96-5.29-.13-1.43,0-2.88.05-4.31.13-3.75-.1-4.07,4.33-4.96,5.8-1.16,11.48-.6,16.62,2.69,1.75,1.12,3.49,2.26,5.14,3.51,4.66,3.51,7.69,8.19,8.85,13.84,1.52,7.37,2.11,14.84,1.81,22.39-.23,5.75-.23,11.5-.3,17.26-.04,3.2.04,6.39,0,9.59-.01,1.28-.05,2.57-.29,3.82-.71,3.77-2.84,5.49-6.65,5.49-1.28,0-2.55-.06-3.77-.56-2.91-1.18-4.79-3.18-4.96-6.42-.1-1.91.03-3.83.02-5.75-.02-2.09-.73-2.83-2.85-3.01-.63-.05-1.28,0-1.92,0-34.21.03-68.42.06-102.64.11-1.27,0-2.55.13-3.82.2-3.84-.27-7.68-.32-11.52.04Z" class="cls-3"/>
  <path d="m798.68,778.43c2.76,11.34,13.59,20.46,24.98,21.21,7.25.48,13.94-1.23,20.26-4.64,1.97-1.06,3.89-2.22,5.89-3.2,5.35-2.63,9.15.11,11.16,4.03,1.01,1.97,1.04,3.98.13,6.01-1.07,2.38-2.6,4.45-4.72,5.94-14.73,10.29-30.55,13.49-47.6,6.62-11.71-4.71-19.71-13.41-24.65-24.88-5.75-13.35-6.53-26.97-.82-40.51,6.28-14.9,17.5-23.93,33.4-27.32,21.33-4.55,45.77,10.84,49.83,35.46.6,3.63.52,7.34.1,11-.61,5.31-3.29,7.85-8.6,8.6-4.93.7-9.89.42-14.84.6-2.07.08-4.14.19-6.21.28-1.6-.37-3.19-.38-4.79-.01-2.83-.11-5.67-.32-8.5-.32-8.04,0-16.09.09-24.13.14-.65.03-.94.37-.88,1.01Zm.42-18.12q.24,1.84,2.42,1.57c1.75.06,3.51.15,5.26.16,10.38.02,20.76.04,31.14.03,2.23,0,4.46-.11,6.7-.17,1.09.32,2.16.27,3.18-.23.73-.36,1.25-.94,1.39-1.76.12-.65-.08-1.22-.64-1.63-2.38-7.26-7.09-12.72-13.29-16.97-1.57-1.08-3.38-1.72-5.24-2.27-4.66-1.37-9.12-.6-13.6.89-9.05,3-14.99,8.79-16.82,18.37-.59.57-.82,1.22-.51,2.02Z" class="cls-11"/>
  <path d="m1162.1,765.95c.58-2.82.26-5.71.94-8.56,4.04-16.88,14.27-28.56,30.39-34.39,18.31-6.62,38.34,1.4,48.15,17.89,4.91,8.25,6.72,17.18,6.02,26.68-.04.48-.08.96-.16,1.43-.95,5.8-3.99,8.45-9.86,8.15-16.78-.87-33.57-.09-50.35-.53-1.11-.03-2.25,0-3.34.2-1.9.33-2.78,1.6-2.36,3.46.24,1.08.65,2.14,1.15,3.13,5.83,11.62,19.13,19.59,34.74,15.27,4.51-1.25,8.56-3.5,12.61-5.76,1.11-.62,2.2-1.39,3.4-1.74,2.78-.82,5.37-.47,7.46,1.83,2.14,2.36,3.61,4.93,2.63,8.24-.7,2.38-2.21,4.21-4.07,5.8-5.32,4.58-11.52,7.34-18.24,9.21-25.3,7.04-46.69-7.87-54.64-25.53-2.45-5.44-3.77-11.18-4.42-17.09.39-2.57.37-5.13-.03-7.69Zm21.2-7.67c-.21.4-.59.79-.61,1.2-.14,2.76,1,3.73,3.57,3.06.74-.19,1.44-.53,2.16-.8,6.31.53,12.62.05,18.93.06,3.6.53,7.2.51,10.8.04,2.71.06,5.42.21,8.13.17,2.04-.03,2.84-1.1,2.51-3.13-.21-1.26-.63-2.48-.84-3.74-.97-5.78-4.22-9.89-9.24-12.68-7.64-4.26-15.36-5.04-23.16-.34-3.45,2.08-6.43,4.72-9.3,7.49-2.44,2.35-3.56,5.25-2.97,8.69Z" class="cls-4"/>
  <path d="m652.9,776.74c-8.15,0-16.3-.02-24.45.01-1.59,0-3.2.07-4.76.34-2.42.42-3.07,1.5-2.29,3.68.92,2.56,2.03,5.05,3.77,7.18,5.97,7.3,13.76,11.26,23.06,12.3,3.24.36,6.38-.3,9.34-1.65,4.07-1.85,8.11-3.77,12.17-5.64,1.01-.47,2.02-.97,3.07-1.34,3.82-1.34,6.62-.53,8.91,2.51,2.38,3.16,2.53,6.62.23,9.73-.94,1.26-2.14,2.37-3.36,3.38-6.36,5.19-13.86,7.78-21.76,9.45-1.56.33-3.13.62-4.71.85-3.35.49-6.67.5-9.96-.55-2.58-.82-5.24-1.42-7.84-2.2-7.18-2.16-13.44-5.86-18.62-11.32-7.23-7.62-12.14-16.43-13.51-26.95-1.05-8.06-.05-15.97,2.66-23.6,3.55-10.02,8.97-18.91,18.11-24.68,30.84-19.46,61.71,2.42,65.04,29.07.48,3.81.38,7.66.03,11.49-.1,1.1-.41,2.2-.79,3.25-.93,2.62-2.74,4.29-5.57,4.62-1.42.17-2.87.2-4.3.2-8.15.02-16.3,0-24.45,0,0-.05,0-.09,0-.14Zm-31.78-14.67c.64-.08,1.29-.15,1.93-.23.96.04,1.91.11,2.87.12,11.65.02,23.3.02,34.94.04,2.07,0,4.15.11,6.22.08,2.29-.04,3.1-.94,3.1-3.26,0-2.45-.51-4.81-1.98-6.78-2.09-2.81-4.31-5.52-6.59-8.18-1.15-1.34-2.77-2.12-4.31-2.97-2.87-1.57-6.04-2.26-9.19-2.4-8.61-.37-16,2.31-21.29,9.53-.65.88-.96,2.05-2.08,2.54-2.3.32-3.52,2.04-4.59,3.79-1.68,2.74-3.38,5.36-6.8,6.15-.17.04-.38.51-.34.74.04.25.34.64.54.65,2.52.1,5.05.14,7.58.19Z" class="cls-9"/>
  <path d="m734.38,817.84c-4.86.43-9.58-.35-14.11-2.03-4.19-1.55-8.29-3.34-12.4-5.09-2.55-1.09-4.56-2.91-6.29-5.06-3.17-3.93-2.49-9.39,1.42-12.92,1.81-1.64,3.94-1.88,6.27-1.07,5.13,1.79,10.23,3.65,15.15,5.96.87.41,1.71.87,2.59,1.24,3.32,1.41,6.71,1.81,10.3,1.06,3.77-.8,7.36-2.13,10.99-3.35,1.09-.37,1.98-1.02,2.68-1.93,3.21-4.19,1.63-11.35-3.12-13.63-1.56-.75-3.3-1.21-5-1.58-6.24-1.36-12.5-2.59-18.75-3.93-6.55-1.41-12.33-4.27-17.05-9.15-3.96-4.09-6.11-8.91-6.25-14.61-.07-2.87,0-5.72.62-8.58,1.6-7.5,5.73-13.1,12.35-16.83,7.59-4.28,15.68-6.14,24.43-5.01,4.6.59,9.2,1.05,13.66,2.39,2.92.88,5.76,1.95,8.42,3.42,1.25.69,2.49,1.48,3.52,2.45,3.95,3.71,3.75,10.01-.32,13.61-2.16,1.92-4.68,1.99-7.21,1.21-2.59-.79-5.11-1.84-7.64-2.82-6.22-2.42-12.63-3.39-19.27-2.52-1.57.21-3.16.52-4.66,1.03-3.05,1.04-5.32,2.89-5.83,6.32-.59,3.94.32,7.33,3.69,9.73,2.81,2,6.03,2.84,9.45,3.05,5.76.36,11.4,1.46,16.95,2.99,3.4.94,6.66,2.25,9.77,3.91,14.29,7.62,16.57,27.4,6.85,38.43-3.66,4.15-7.98,7.35-13.31,9.05-3.04.97-6.11,1.91-8.9,3.5-1.02.58-2.08.76-3.21.76-1.92,0-3.83,0-5.75,0Z" class="cls-5"/>
  <path d="m1075.81,769.48c-.19-6.96,1.18-13.47,3.8-19.75,6.5-15.55,18.26-24.6,34.61-27.95,9.7-1.98,19.08-.76,28.11,3.14,3.53,1.52,6.87,3.4,9.62,6.18,5.51,5.57,3.25,13.01-4.1,16.12-1.26.53-2.53.33-3.68-.36-.96-.57-1.86-1.24-2.8-1.84-5.11-3.27-10.71-4.92-16.75-5.05-4.16-.09-8.29.04-12.4.9-2.57.54-4.93,1.49-6.93,3.09-8.47,6.8-13.03,15.56-13,26.54,0,1.11.08,2.26.39,3.32,2.22,7.49,5.72,14.23,11.86,19.31,5.84,4.83,12.56,6.64,20.1,5.83,5.49-.59,10.57-2.36,15.47-4.78,1.57-.78,3.16-1.53,4.77-2.23,2.94-1.29,5.63-.89,7.94,1.38,2.47,2.44,3.49,5.33,2.33,8.73-1.01,2.98-2.94,5.28-5.57,6.99-3.63,2.35-7.49,4.28-11.52,5.83-8.1,3.12-16.38,3.87-24.94,2.12-2.7-.55-5.27-1.05-7.49-2.8-.86-.67-1.97-1.03-3-1.47-11.54-4.93-19.09-13.65-23.64-25.12-2.32-5.85-3.39-11.97-3.16-18.14Z" class="cls-4"/>
  <path d="m254.45,810.11c.83-.16,1.61-.49,1.71-1.4.13-1.27.11-2.55.11-3.83,0-11.03,0-22.07,0-33.1,0-1.28.01-2.56.04-3.84.02-.66.18-1.37.95-1.41.69-.03,1.07.64,1.28,1.23.32.89.5,1.84.79,2.74.15.45.44.93,1.02.74.42-.14.85-.41,1.13-.75.65-.8.55-1.8.55-2.75.01-3.04,0-6.08,0-9.12,0-1.12,0-2.24.08-3.35.06-.87.49-1.57,1.47-1.49.97.08,1.25.88,1.28,1.72.05,1.28.04,2.56.04,3.84.01,3.04-.03,6.08.04,9.12.04,1.79.36,2.05,2.35,2.28.63.07,1.28.02,1.92.03.2,2.56.39,5.12.59,7.69-.38,1.6-.38,3.2,0,4.8-.37,1.28-.38,2.56-.03,3.84-.14,4.13-1.09,8.25-.24,12.4-.8,2.3-.79,4.61-.06,6.92-1.28,9.88,4.02,17.74,13.48,20.04,1.24.3,2.47.62,3.7.95,1.71.46,3.39.67,5.19.42,2.2-.3,4.44-.3,6.67-.42,1.92.39,3.84.39,5.75.02,1.29.2,2.57.27,3.84-.1,1.28.38,2.56.36,3.85.05,2.87.96,5.75.85,8.63.05,3.96.2,7.93.54,11.89.58,11.13.09,22.27.07,33.4.06,1.57,0,3.19.27,4.71-.43,1.49.7,3.08.41,4.64.44,5.8.08,11.6.12,17.4.17.35.34.69.69,1.04,1.03.37.7.78,1.39,1.1,2.11,1.85,4.15.55,8.46-3.3,10.85-.52.32-1.17.54-1.78.59-1.11.1-2.23.06-3.35.06-32.43.05-64.85,0-97.28.25-6.15.05-11.64-1.45-16.97-4.16-3.29-1.67-6.34-3.7-8.99-6.3-4.01-3.92-6.41-8.7-7.71-14.09-.3-1.23-.54-2.48-.8-3.73.82-.66.74-1.27-.11-1.83-.29-.97-.3-1.93-.03-2.9Z" class="cls-11"/>
  <path d="m419.65,823.7c-3.12.1-5.73-1.09-8.08-2.82-2.44-1.8-4.77-3.75-7.08-5.72-4.86-4.15-9.66-8.37-14.5-12.55-1.35-1.17-2.46-2.5-3.02-4.24-1.37-4.3-.21-7.84,3.46-10.57,4.53-3.37,8.97-3.6,13.75-.36,2.77,1.88,5.28,4.14,7.88,6.25,1.49,1.21,3.01,2.36,4.77,3.19,1.58.75,3.08.69,4.58-.14,1.98-1.09,3.66-2.56,5.27-4.11,10.7-10.32,21.4-20.64,32.09-30.97,1.61-1.56,3.22-3.11,5.24-4.15,5.85-3.03,14.12.08,16.46,6.23.72,1.88.53,3.75-.32,5.58-.75,1.63-1.87,2.97-3.14,4.2-9.73,9.49-19.45,18.98-29.21,28.43-5.39,5.23-10.85,10.39-16.26,15.61-1.62,1.56-3.29,3.03-5.19,4.24-2.08,1.32-4.33,2.03-6.72,1.89Z" class="cls-11"/>
  <path d="m882.82,768.58c0-11.66,0-23.32.01-34.99,0-1.43,0-2.9.25-4.3,1.16-6.14,8.38-9.06,13.53-5.54,1.75,1.2,2.29,3.03,2.53,4.95.16,1.26,0,2.55.07,3.83.06.94.07,1.97,1.12,2.46,1.03.48,1.83-.05,2.56-.73.7-.65,1.37-1.34,2.1-1.96,4.79-4.08,9.97-7.44,16.19-8.97,3.79-.94,7.6-.97,11.42-.56,3.21.35,5.15,2.34,5.81,5.5,1.07,5.19-1.4,9.15-6.57,10.45-1.86.47-3.77.73-5.6,1.27-14.1,4.15-22.32,13.59-25,27.97-.65,3.47-.87,6.96-.86,10.48.04,8.47,0,16.93.02,25.4,0,2.42-.22,4.78-1.08,7.06-1.19,3.18-3.42,4.86-6.86,5.02-3.46.16-6.33-.76-8.07-3.99-.92-1.71-1.42-3.55-1.45-5.51-.04-2.87-.09-5.75-.09-8.63-.01-9.75,0-19.49,0-29.24h-.02Z" class="cls-5"/>
  <path d="m1003.22,783.69c-3.43,8.77-6.74,17.58-10.34,26.28-2.47,5.97-10.29,8.21-15.78,4.82-1.87-1.15-2.9-2.91-3.71-4.86-3.25-7.81-6.5-15.63-9.78-23.43-3.59-8.54-6.84-17.21-9.65-26.04-1.6-5.03-3.93-9.77-6.17-14.54-1.29-2.75-2.61-5.48-3.93-8.21-.84-1.74-1.36-3.57-1.75-5.46-.2-.97-.14-1.88.08-2.84.92-3.94,3.82-5.78,7.39-6.68,3.61-.91,6.6.22,8.72,3.41,1.07,1.61,1.88,3.33,2.58,5.12,6.4,16.36,12.8,32.71,19.24,49.05.52,1.32.7,2.81,1.78,3.88.06.46.08.93.19,1.38.11.46.35.97.88.93.77-.06.86-.72.89-1.35,2.05-2.96,3.12-6.42,4.82-9.56.88-1.63,1.74-3.28,2.61-4.92,2.62-.7,4.38-2.3,5.59-4.76,1.04-2.12,1.86-2.04,3.28.03.45.65.95,1.28,1.32,1.98.89,1.66.91,3.34-.17,4.93-.35.52-.88.93-1.24,1.45-1.23,1.78-1.26,3.24.39,4.6,1.59,1.31,2.47,2.83,2.76,4.79Z" class="cls-11"/>
  <path d="m1040.3,743.88c.39-3.2.41-6.4.02-9.6.33-1.28.33-2.56,0-3.84.37-1.69.33-3.45,1.52-4.95,2.18-2.76,4.83-3.77,8-2.39,2.18.94,4.18,2.32,6.24,3.52,1.1.64,1.29,1.78,1.39,2.9.17,1.9.27,3.81.41,5.72-.34,1.28-.35,2.56-.03,3.85-1.19,7.01-.35,13.99.34,20.97.14,1.43.28,2.86.29,4.29.02,12.77,0,25.54.02,38.32,0,2.25-.06,4.48-.81,6.62-1.57,4.52-5.29,7.08-9.79,6.89-2.43-.1-4.29-1.12-5.56-3.18-1.1-1.79-1.85-3.67-1.85-5.85,0-1.58-.25-3.16-.4-4.75.59-2.54.52-5.09.15-7.65.38-2.88.41-5.75.01-8.63.08-.94.23-1.89.24-2.83.04-12.19.06-24.39.07-36.58,0-.94-.15-1.89-.23-2.83Z" class="cls-4"/>
  <path d="m1003.22,783.69c-.29-1.96-1.17-3.48-2.76-4.79-1.65-1.36-1.62-2.82-.39-4.6.36-.52.88-.92,1.24-1.45,1.08-1.6,1.06-3.27.17-4.93-.37-.69-.87-1.32-1.32-1.98-1.42-2.07-2.24-2.15-3.28-.03-1.21,2.46-2.97,4.06-5.59,4.76.37-4.68,2.11-8.99,3.76-13.29,1.54-4.02,3.37-7.92,4.97-11.92,1.9-4.73,3.71-9.5,5.56-14.25.41-1.04.84-2.07,1.25-3.11,1.28-3.33,3.8-4.93,7.25-5.31,5.19-.58,9.4,2.79,9.92,8.01.16,1.6.03,3.19-.51,4.72-1.12,3.15-2.17,6.33-3.39,9.44-3.26,8.31-6.59,16.59-9.91,24.88-.71,1.77-1.39,3.55-2.66,5.05-.83.98-1.43,2.16-1.5,3.46-.11,2.24-1.17,3.92-2.82,5.32Z" class="cls-4"/>
  <path d="m342.88,669.72c6.39,0,12.77-.03,19.16.02,2.71.02,3.23.55,3.99,3.15.99,3.39-.04,6.64-.66,9.9-.15.79-1,1.29-1.79,1.44-1.09.2-2.21.31-3.32.31-11.5.03-22.99.04-34.49.05-.64,0-1.28.04-1.91-.01-2.03-.18-3.01-1-3.07-2.94-.11-3.35-.07-6.7-.03-10.05,0-.91.65-1.44,1.53-1.51,1.11-.09,2.23-.11,3.35-.11,5.75,0,11.5,0,17.25,0,0-.08,0-.16,0-.24Z" class="cls-9"/>
  <path d="m311.87,676.99c0,4.3,0,8.61,0,12.91,0,1.44-.07,2.85-.57,4.24-1.17,3.22-3.81,4.84-7.52,4.53-3.6-.29-5.99-2.43-6.36-5.95-.31-3.01-.5-6.04-.53-9.06-.08-7.01-.36-14.02.45-21.01.09-.79.08-1.6.24-2.38.44-2.09,1.77-3.47,3.89-3.62,2.22-.16,4.46-.02,6.68.04,1.04.03,1.75.68,2.33,1.48,1.18,1.62,1.48,3.48,1.48,5.43-.02,4.46,0,8.92,0,13.39h-.08Z" class="cls-9"/>
  <path d="m389.77,677.22c0,4.95-.11,9.9.04,14.84.08,2.47-1.07,3.83-3.07,4.87-3.78,1.98-7.36,1.32-9.83-1.85-.93-1.19-1.33-2.51-1.34-4-.01-9.26-.14-18.52,0-27.77.07-4.95,4.69-8.04,9.39-6.55.9.29,1.73.8,2.57,1.25,1.54.82,2.3,2.04,2.25,3.87-.08,2.71.02,5.43.03,8.14,0,2.39,0,4.79,0,7.18h-.05Z" class="cls-9"/>
  <path d="m1058.65,697.1c.03,6.17-3,10.27-8.2,11.66-1.84.49-3.52.16-5.14-.46-4.15-1.58-7.01-4.46-7.77-8.95-.75-4.42.51-8.24,4.18-11.03,3.51-2.66,7.37-2.74,11.35-1.33,1.89.67,3.18,2.08,4.08,3.86,1.03,2.03,1.6,4.16,1.5,6.25Z" class="cls-4"/>
  <path d="m370.59,827.62c-1.52.7-3.13.43-4.71.43-11.13,0-22.27.03-33.4-.06-3.96-.03-7.93-.38-11.89-.58-.06-1.59.31-2.61,2.21-3.01,2.34-.5,4.64-.91,7.04-.87,5.41.07,10.82,0,16.23.03,3.16.02,6.34-.31,9.45.79,1,.35,2.21.15,3.32.16,4.61.01,9.23,0,13.84,0,.95,0,1.92-.08,2.86.02,1.01.11,2.71-.56,2.82.83.13,1.65-1.62.93-2.57,1.03-1.26.14-2.54.03-3.81.09-.7.03-1.12.51-1.38,1.13Z" class="cls-6"/>
  <path d="m269.81,778.44c-.2-2.56-.39-5.12-.59-7.69.1-1.73.29-3.46.3-5.19.05-8.85.06-17.7.1-26.55,0-1.58.11-3.15.17-4.73.3-.3.6-.6.9-.9.64.02,1.28.04,1.92.07,0,13.08,0,26.17,0,39.25,0,1.12.03,2.24-.02,3.35-.09,1.82-.11,1.82-2.76,2.38Z" class="cls-6"/>
  <path d="m1040.3,743.88c.08.94.23,1.89.23,2.83,0,12.19-.03,24.39-.07,36.58,0,.94-.15,1.89-.24,2.83-1.38-.02-2.58-.28-2.61-2.03-.02-.96-.03-1.91-.03-2.87,0-10.84,0-21.67,0-32.51,0-.8-.02-1.59.02-2.39.09-1.86.11-1.85,2.68-2.44Z" class="cls-6"/>
  <path d="m283.16,733.53c3.52-.35,7.04-.37,10.56-.02-1.08,2.48-1.19,2.69-2.75,2.21-1.73-.53-3.31-.53-5.05,0-1.57.48-1.67.28-2.76-2.19Z" class="cls-6"/>
  <path d="m297.55,733.37c3.84-.36,7.68-.31,11.52-.04-.13.81-.42,1.72-1.28,1.75-2.97.11-5.95.11-8.93.01-.86-.03-1.17-.92-1.31-1.73Z" class="cls-6"/>
  <path d="m253.98,784.18c.47,3.85.46,7.69.02,11.54-.59-.21-1.29-.42-1.36-1.11-.34-3.1-.33-6.2-.01-9.3.07-.7.76-.91,1.35-1.12Z" class="cls-10"/>
  <path d="m1040.21,794.75c.37,2.56.44,5.11-.15,7.65-1.41.01-2.39-.48-2.43-2.07-.02-1.07-.06-2.15-.02-3.22.07-1.76.1-1.76,2.6-2.36Z" class="cls-6"/>
  <path d="m269.48,806.4c-.73-2.31-.75-4.62.06-6.92,1.63,1.27,1.78,3.17,2.02,4.97.19,1.42-.91,1.8-2.08,1.95Z" class="cls-8"/>
  <path d="m1162.1,765.95c.39,2.56.41,5.13.03,7.69-.6-.19-1.3-.33-1.45-1.04-.38-1.86-.36-3.74-.01-5.6.13-.72.84-.86,1.43-1.05Z" class="cls-10"/>
  <path d="m311.96,827.36c-1.29.31-2.57.33-3.85-.05.04-.77-.11-1.65.53-2.18.43-.36,1.11-.52,1.69-.57.74-.06,1.62-.19,2.08.63.46.81-.24,1.46-.44,2.17Z" class="cls-6"/>
  <path d="m269.78,787.07c-.35-1.28-.34-2.56.03-3.84,2.34.43,2.84.83,2.71,2.16-.18,1.75-1.52,1.62-2.74,1.68Z" class="cls-6"/>
  <path d="m304.27,827.41c-1.92.37-3.84.37-5.75-.02.12-.61.16-1.32.84-1.57,1.35-.5,2.75-.51,4.1.01.67.26.7.97.82,1.58Z" class="cls-8"/>
  <path d="m1040.31,730.44c.34,1.28.34,2.56,0,3.84-1.1-.07-2.34.09-2.6-1.45-.11-.63-.11-1.28.37-1.8.61-.65,1.44-.54,2.22-.6Z" class="cls-6"/>
  <path d="m521.61,767.95c.24-3.24.53-3.56,3.45-3.81-.24,2.09-1.53,3.23-3.45,3.81Z" class="cls-8"/>
  <path d="m420.72,715.06c.55,2.61.38,2.89-1.85,2.94-.46,0-.92-.15-1.38-.24.22-1.92,1.4-2.7,3.23-2.7Z" class="cls-8"/>
  <path d="m387.09,826.41c-.21-.06-.8-.21-1.37-.4-.11-.04-.27-.24-.25-.34.06-.28.13-.71.3-.77.57-.19,1.19-.3,1.79-.35.63-.05,1.22.09,1.58.71.3.54-.52,1.1-2.06,1.14Z" class="cls-6"/>
  <path d="m832.19,777.6c1.6-.37,3.19-.36,4.79.01-.17,1.64-1.31,1.79-2.63,1.77-1.24-.01-2.03-.48-2.16-1.79Z" class="cls-6"/>
  <path d="m1057.83,739.08c-.32-1.28-.31-2.57.03-3.85,1.31.13,1.83.9,1.75,2.17-.07,1.13-.78,1.56-1.78,1.68Z" class="cls-10"/>
  <path d="m983.86,785.16c-.03.63-.11,1.29-.89,1.35-.53.04-.77-.47-.88-.93-.11-.45-.13-.92-.19-1.38.65.32,1.31.64,1.96.96Z" class="cls-12"/>
  <path d="m515.41,686.17c-.59.56-1.22.68-1.91.19.55-.94,1.18-1.11,1.91-.19Z" class="cls-8"/>
  <path d="m393.66,829.26c-.35-.34-.69-.69-1.04-1.03.36-.51.86-.85,1.37-.34.51.51.18,1.01-.34,1.37Z" class="cls-6"/>
  <path d="m254.48,813.02c.86.56.93,1.17.11,1.83-.04-.61-.08-1.22-.11-1.83Z" class="cls-3"/>
  <path d="m798.68,778.43c-.06-.64.23-.98.88-1.01-.29.34-.59.67-.88,1.01Z" class="cls-12"/>
  <path d="m522.25,706.46c.09-1.7.89-2.63,2.69-2.63,9.26-.02,18.52-.14,27.78-.04,2.19.02,4.46.54,6.55,1.24,7.23,2.44,11.83,7.24,13.09,15.01.57,3.52.65,6.94-.06,10.45-1.01,5-3.72,8.79-7.82,11.6-3.75,2.56-7.82,4.11-12.53,4.07-8.14-.07-16.28.17-24.42.25-1.11.01-2.23-.1-3.34-.22-1.35-.14-1.85-1.08-2-2.3,1.23-2.21,1.11-2.78-.82-3.91-.04-1.11-.17-2.23-.11-3.33.37-6.52.23-13.04.06-19.56-.05-1.9.09-3.81.14-5.72,1.92-1.43,2.04-2.18.79-4.89Z" class="cls-6"/>
  <path d="m522.25,706.46c1.26,2.71,1.14,3.46-.79,4.89-.3-1.72-.41-3.41.79-4.89Z" class="cls-1"/>
  <path d="m521.37,739.97c1.93,1.13,2.05,1.7.82,3.91-1.17-1.11-1.09-2.49-.82-3.91Z" class="cls-1"/>
  <path d="m270.68,733.39c-.3.3-.6.6-.9.9-.07-.67.23-.97.9-.9Z" class="cls-8"/>
  <path d="m799.61,758.29c1.84-9.58,7.78-15.36,16.82-18.37,4.48-1.49,8.93-2.26,13.6-.89,1.86.55,3.67,1.19,5.24,2.27,6.2,4.25,10.91,9.71,13.29,16.97-1.34,1.18-3.46,1.51-3.94,3.62-2.23.06-4.46.17-6.7.17-10.38,0-20.76,0-31.14-.03-1.75,0-3.51-.1-5.26-.16-.07-.8-.42-1.41-1.21-1.7.09-.75-.06-1.41-.7-1.89Z" class="cls-6"/>
  <path d="m844.62,761.89c.48-2.11,2.6-2.44,3.94-3.62.56.41.75.98.64,1.63-.15.82-.66,1.4-1.39,1.76-1.02.5-2.09.56-3.18.23Z" class="cls-8"/>
  <path d="m800.31,760.17c.79.29,1.14.9,1.21,1.7q-2.18.27-2.42-1.57c.4-.04.81-.09,1.21-.13Z" class="cls-8"/>
  <path d="m800.31,760.17c-.4.04-.81.09-1.21.13-.31-.79-.07-1.45.51-2.02.64.48.79,1.14.7,1.89Z" class="cls-1"/>
  <path d="m1207.36,761.8c-6.31,0-12.62.47-18.93-.06-1.2-1.9-2.94-3.02-5.12-3.46-.6-3.44.53-6.33,2.97-8.69,2.87-2.77,5.85-5.41,9.3-7.49,7.8-4.7,15.52-3.91,23.16.34,5.02,2.79,8.27,6.91,9.24,12.68.21,1.26.63,2.48.84,3.74.33,2.03-.47,3.1-2.51,3.13-2.71.04-5.42-.1-8.13-.17-.25-.58-.51-1.24-1.19-1.33-2.79-.37-5.59-.35-8.39-.01-.68.08-.96.73-1.22,1.3Z" class="cls-6"/>
  <path d="m1183.3,758.29c2.19.44,3.92,1.55,5.12,3.46-.72.27-1.42.61-2.16.8-2.57.67-3.7-.3-3.57-3.06.02-.41.4-.8.61-1.2Z" class="cls-1"/>
  <path d="m1207.36,761.8c.26-.57.54-1.22,1.22-1.3,2.79-.34,5.59-.36,8.39.01.68.09.94.75,1.19,1.33-3.6.47-7.2.49-10.8-.04Z" class="cls-1"/>
  <path d="m624.73,750.56c1.12-.49,1.44-1.66,2.08-2.54,5.29-7.23,12.68-9.9,21.29-9.53,3.16.14,6.32.83,9.19,2.4,1.55.85,3.17,1.63,4.31,2.97,2.28,2.66,4.5,5.37,6.59,8.18,1.47,1.97,1.98,4.33,1.98,6.78,0,2.32-.81,3.23-3.1,3.26-2.07.03-4.15-.08-6.22-.08-11.65-.02-23.3-.02-34.94-.04-.96,0-1.91-.08-2.87-.12-.17-1.08-.86-1.59-1.91-1.71-.11-1.01.48-1.78.86-2.63,1.01-2.28,2.34-4.43,2.74-6.95Z" class="cls-6"/>
  <path d="m624.73,750.56c-.4,2.52-1.73,4.67-2.74,6.95-.38.85-.96,1.62-.86,2.63,0,.65-.02,1.29-.02,1.94-2.53-.05-5.05-.09-7.58-.19-.2,0-.5-.4-.54-.65-.04-.23.17-.7.34-.74,3.42-.79,5.12-3.42,6.8-6.15,1.07-1.75,2.29-3.46,4.59-3.79Z" class="cls-13"/>
  <path d="m621.12,762.07c0-.65.02-1.29.02-1.94,1.04.12,1.73.63,1.91,1.71-.64.08-1.29.15-1.93.23Z" class="cls-1"/>
</svg>